<svg width="16" height="20" viewBox="0 0 16 20" fill="none" xmlns="http://www.w3.org/2000/svg">
<path fill-rule="evenodd" clip-rule="evenodd" d="M2 17C2 17.551 2.449 18 3 18H13C13.551 18 14 17.551 14 17V10C14 9.449 13.551 9 13 9H3C2.449 9 2 9.449 2 10V17ZM11 5C11 3.344 9.656 2 8 2C6.344 2 5 3.344 5 5V7H11V5ZM3 7V5C3 2.238 5.238 0 8 0C10.762 0 13 2.238 13 5V7C14.656 7 16 8.344 16 10V17C16 18.656 14.656 20 13 20H3C1.344 20 0 18.656 0 17V10C0 8.344 1.344 7 3 7ZM8 11C8.625 10.992 9.188 11.375 9.41 11.957C9.633 12.539 9.469 13.199 9 13.609V15C9 15.551 8.551 16 8 16C7.449 16 7 15.551 7 15V13.609C6.531 13.199 6.367 12.539 6.59 11.957C6.812 11.375 7.375 10.992 8 11Z" fill="#666666"/>
</svg>
