<svg width="25" height="24" viewBox="0 0 25 24" fill="none" xmlns="http://www.w3.org/2000/svg">
<path d="M9.96899 3.94C10.059 3.398 10.529 3 11.079 3H13.672C14.222 3 14.692 3.398 14.782 3.94L14.995 5.221C15.058 5.595 15.308 5.907 15.64 6.091C15.714 6.131 15.787 6.174 15.86 6.218C16.185 6.414 16.58 6.475 16.935 6.342L18.152 5.886C18.4014 5.79221 18.676 5.78998 18.9269 5.87971C19.1778 5.96945 19.3886 6.14531 19.522 6.376L20.818 8.623C20.951 8.8537 20.9979 9.12413 20.9503 9.38617C20.9027 9.6482 20.7637 9.88485 20.558 10.054L19.555 10.881C19.262 11.122 19.117 11.494 19.125 11.873C19.1264 11.958 19.1264 12.043 19.125 12.128C19.117 12.506 19.262 12.878 19.555 13.119L20.559 13.946C20.983 14.296 21.093 14.901 20.819 15.376L19.521 17.623C19.3878 17.8536 19.1772 18.0296 18.9265 18.1195C18.6758 18.2094 18.4014 18.2074 18.152 18.114L16.935 17.658C16.58 17.525 16.185 17.586 15.859 17.782C15.7865 17.8261 15.7132 17.8688 15.639 17.91C15.308 18.093 15.058 18.405 14.995 18.779L14.782 20.06C14.692 20.603 14.222 21 13.672 21H11.078C10.528 21 10.059 20.602 9.96799 20.06L9.75499 18.779C9.69299 18.405 9.44299 18.093 9.11099 17.909C9.03684 17.8681 8.96349 17.8258 8.89099 17.782C8.56599 17.586 8.17099 17.525 7.81499 17.658L6.59799 18.114C6.34872 18.2075 6.07436 18.2096 5.82369 18.1199C5.57303 18.0302 5.3623 17.8545 5.22899 17.624L3.93199 15.377C3.79894 15.1463 3.75204 14.8759 3.79965 14.6138C3.84726 14.3518 3.98628 14.1152 4.19199 13.946L5.19599 13.119C5.48799 12.879 5.63299 12.506 5.62599 12.128C5.62443 12.043 5.62443 11.958 5.62599 11.873C5.63299 11.493 5.48799 11.122 5.19599 10.881L4.19199 10.054C3.98653 9.88489 3.84767 9.64843 3.80006 9.38662C3.75246 9.12481 3.79921 8.8546 3.93199 8.624L5.22899 6.377C5.36218 6.14614 5.573 5.97006 5.8239 5.88014C6.0748 5.79021 6.34948 5.79229 6.59899 5.886L7.81499 6.342C8.17099 6.475 8.56599 6.414 8.89099 6.218C8.96299 6.174 9.03699 6.132 9.11099 6.09C9.44299 5.907 9.69299 5.595 9.75499 5.221L9.96899 3.94Z" fill="white" stroke="#666666" stroke-width="1.5" stroke-linecap="round" stroke-linejoin="round"/>
<path d="M15.3736 11.9075C15.3981 12.7027 15.1057 13.4752 14.5607 14.0549C14.0157 14.6345 13.2627 14.974 12.4674 14.9985C11.6722 15.023 10.8997 14.7306 10.32 14.1856C9.74037 13.6406 9.40094 12.8876 9.37642 12.0923C9.35191 11.2971 9.64432 10.5246 10.1893 9.94494C10.7343 9.36527 11.4873 9.02584 12.2826 9.00132C13.0778 8.97681 13.8503 9.26922 14.43 9.81423C15.0096 10.3592 15.3491 11.1122 15.3736 11.9075Z" stroke="#666666" stroke-width="1.5" stroke-linecap="round" stroke-linejoin="round"/>
</svg>
