<svg width="25" height="24" viewBox="0 0 25 24" fill="none" xmlns="http://www.w3.org/2000/svg">
<path d="M12.095 3.84111C12.2356 3.70066 12.4263 3.62177 12.625 3.62177C12.8238 3.62177 13.0144 3.70066 13.155 3.84111L21.845 12.5311C21.9142 12.6027 21.997 12.6598 22.0885 12.6991C22.1801 12.7383 22.2785 12.759 22.3781 12.7598C22.4776 12.7606 22.5764 12.7416 22.6685 12.7038C22.7607 12.6661 22.8444 12.6104 22.9148 12.5399C22.9852 12.4694 23.0408 12.3857 23.0785 12.2935C23.1162 12.2013 23.1351 12.1025 23.1342 12.003C23.1333 11.9034 23.1125 11.805 23.0732 11.7135C23.0338 11.622 22.9767 11.5393 22.905 11.4701L14.216 2.78011C14.0071 2.57118 13.759 2.40544 13.486 2.29237C13.2131 2.17929 12.9205 2.12109 12.625 2.12109C12.3295 2.12109 12.0369 2.17929 11.764 2.29237C11.491 2.40544 11.2429 2.57118 11.034 2.78011L2.344 11.4701C2.2724 11.5393 2.21531 11.6221 2.17604 11.7136C2.13678 11.8052 2.11614 11.9036 2.11532 12.0032C2.1145 12.1028 2.13353 12.2015 2.17128 12.2937C2.20903 12.3858 2.26476 12.4695 2.33522 12.5399C2.40567 12.6103 2.48943 12.6659 2.58162 12.7036C2.67381 12.7413 2.77258 12.7602 2.87216 12.7593C2.97175 12.7584 3.07015 12.7377 3.16164 12.6983C3.25312 12.659 3.33585 12.6018 3.405 12.5301L12.095 3.84111Z" fill="#0960F5"/>
<path d="M12.625 5.43188L20.784 13.5909C20.814 13.6209 20.844 13.6489 20.875 13.6769V19.8749C20.875 20.9099 20.035 21.7499 19 21.7499H15.625C15.4261 21.7499 15.2353 21.6709 15.0947 21.5302C14.954 21.3896 14.875 21.1988 14.875 20.9999V16.4999C14.875 16.301 14.796 16.1102 14.6553 15.9696C14.5147 15.8289 14.3239 15.7499 14.125 15.7499H11.125C10.9261 15.7499 10.7353 15.8289 10.5947 15.9696C10.454 16.1102 10.375 16.301 10.375 16.4999V20.9999C10.375 21.1988 10.296 21.3896 10.1553 21.5302C10.0147 21.6709 9.82391 21.7499 9.625 21.7499H6.25C5.75272 21.7499 5.27581 21.5523 4.92417 21.2007C4.57254 20.8491 4.375 20.3722 4.375 19.8749V13.6769C4.40611 13.6491 4.43646 13.6204 4.466 13.5909L12.625 5.43188Z" fill="#0960F5"/>
</svg>
