<svg width="24" height="25" viewBox="0 0 24 25" fill="none" xmlns="http://www.w3.org/2000/svg">
<path d="M8 2.5H16C17.5913 2.5 19.1174 3.13214 20.2426 4.25736C21.3679 5.38258 22 6.9087 22 8.5V16.5C22 18.0913 21.3679 19.6174 20.2426 20.7426C19.1174 21.8679 17.5913 22.5 16 22.5H8C6.4087 22.5 4.88258 21.8679 3.75736 20.7426C2.63214 19.6174 2 18.0913 2 16.5L2 8.5C2 6.9087 2.63214 5.38258 3.75736 4.25736C4.88258 3.13214 6.4087 2.5 8 2.5ZM8 4.5C6.93913 4.5 5.92172 4.92143 5.17157 5.67157C4.42143 6.42172 4 7.43913 4 8.5V16.5C4 17.5609 4.42143 18.5783 5.17157 19.3284C5.92172 20.0786 6.93913 20.5 8 20.5H16C17.0609 20.5 18.0783 20.0786 18.8284 19.3284C19.5786 18.5783 20 17.5609 20 16.5V8.5C20 7.43913 19.5786 6.42172 18.8284 5.67157C18.0783 4.92143 17.0609 4.5 16 4.5H8ZM14 11.5H17C17.2652 11.5 17.5196 11.6054 17.7071 11.7929C17.8946 11.9804 18 12.2348 18 12.5C18 12.7652 17.8946 13.0196 17.7071 13.2071C17.5196 13.3946 17.2652 13.5 17 13.5H14C13.7348 13.5 13.4804 13.3946 13.2929 13.2071C13.1054 13.0196 13 12.7652 13 12.5C13 12.2348 13.1054 11.9804 13.2929 11.7929C13.4804 11.6054 13.7348 11.5 14 11.5ZM12 15.5H17C17.2652 15.5 17.5196 15.6054 17.7071 15.7929C17.8946 15.9804 18 16.2348 18 16.5C18 16.7652 17.8946 17.0196 17.7071 17.2071C17.5196 17.3946 17.2652 17.5 17 17.5H12C11.7348 17.5 11.4804 17.3946 11.2929 17.2071C11.1054 17.0196 11 16.7652 11 16.5C11 16.2348 11.1054 15.9804 11.2929 15.7929C11.4804 15.6054 11.7348 15.5 12 15.5ZM12 7.5H17C17.2652 7.5 17.5196 7.60536 17.7071 7.79289C17.8946 7.98043 18 8.23478 18 8.5C18 8.76522 17.8946 9.01957 17.7071 9.20711C17.5196 9.39464 17.2652 9.5 17 9.5H12C11.7348 9.5 11.4804 9.39464 11.2929 9.20711C11.1054 9.01957 11 8.76522 11 8.5C11 8.23478 11.1054 7.98043 11.2929 7.79289C11.4804 7.60536 11.7348 7.5 12 7.5ZM7.828 12.743L9.95 10.62C10.0429 10.5272 10.1532 10.4535 10.2746 10.4033C10.3959 10.3531 10.526 10.3273 10.6574 10.3273C10.7887 10.3273 10.9188 10.3533 11.0401 10.4036C11.1614 10.4539 11.2717 10.5276 11.3645 10.6205C11.4573 10.7134 11.531 10.8237 11.5812 10.9451C11.6314 11.0664 11.6572 11.1965 11.6572 11.3279C11.6572 11.4592 11.6312 11.5893 11.5809 11.7106C11.5306 11.8319 11.4569 11.9422 11.364 12.035L8.536 14.863C8.44313 14.956 8.33284 15.0297 8.21144 15.0801C8.09004 15.1304 7.95992 15.1563 7.8285 15.1563C7.69708 15.1563 7.56696 15.1304 7.44556 15.0801C7.32416 15.0297 7.21387 14.956 7.121 14.863L5.707 13.45C5.52484 13.2614 5.42405 13.0088 5.42633 12.7466C5.4286 12.4844 5.53377 12.2336 5.71918 12.0482C5.90459 11.8628 6.1554 11.7576 6.4176 11.7553C6.6798 11.753 6.9324 11.8538 7.121 12.036L7.828 12.743Z" fill="#999999"/>
</svg>
